<svg id="Livello_1" data-name="Livello 1" xmlns="http://www.w3.org/2000/svg" viewBox="0 0 356.76 251.02"><defs><style>.cls-1{fill:#94080b;}.cls-2{fill:none;stroke:#94080b;stroke-miterlimit:10;stroke-width:3.11px;}</style></defs><title>logo</title><path class="cls-1" d="M230.86,124.48c-.17-3-.48-8.48-.48-8.48-.09-1.66-.14-2.49-.23-4.14l-.36-6.31c-.06-1,.31-4.17-.56-4.75a2.22,2.22,0,0,0-1.14-.25,1.82,1.82,0,0,0-.19.84,1.32,1.32,0,0,1-.28.8c-1.34,1.4-1.39-1.74-1.38-2.12a.31.31,0,0,0-.05-.21.37.37,0,0,0-.18-.11,1.74,1.74,0,0,0-1.31,0c-.35.19-.71,2.1-.66,2.1-2.1,0-.08-1.94-.92-2.86-.44-.48-1.4-.56-2-.7,0,.8,0,1.61,0,2.42-.2,0-1.41-.39-1.43-.63-.23-4.93-.57-9.91-.56-14.84q-.32-8.46-.62-16.93-.15-4.23-.32-8.46c-.07-2-.79-5,.17-6.87a11.07,11.07,0,0,1,1.46-1.94c-1.94-.8-3.89-1.56-5.85-2.31a1.7,1.7,0,0,1-.71-.42,1.58,1.58,0,0,1-.26-.64c-2.29-8.93-4.7-17.82-7.05-26.74-1.33,9.38-2.68,18.76-4,28.14a1.59,1.59,0,0,1-.21.71,1.24,1.24,0,0,1-.5.44c-.49.27-2.12,1-4.36,2A3.47,3.47,0,0,1,198.81,54a2.71,2.71,0,0,1,.2.89c.14,3,.11,6,.21,9q.34,10.4.68,20.78l-6.78-2.77-27-11c-9-3.7-18.11-7.36-27.14-11.11a3.53,3.53,0,0,0-1.48-.38,3.6,3.6,0,0,0-1.1.3l-1.68.65a2.57,2.57,0,0,1-1.15.25,2.36,2.36,0,0,1-.88-.3c-4.81-2.3-9.62-4.62-14.54-6.67a10,10,0,0,0-1.33-.48c-2.12-.59-4.52-.24-6.69-.36s-4.47-.12-6.71-.19a.76.76,0,0,0-.83.4c-1.7,2.36-3.43,4.69-5.15,7-.88,1.2-1.77,2.4-2.65,3.61a8.46,8.46,0,0,0-1.71,2.59A7.14,7.14,0,0,0,93,68c0,.9,0,1.8,0,2.7a1,1,0,0,1-.07.46,1,1,0,0,1-.36.34l-4.52,3L68.28,87.89,44.22,104.06l-9.78,6.61c-1.6,1.08-3.19,2.15-4.8,3.21-1.17.78-2.62,1.08-3.13,2.54a7.2,7.2,0,0,0-.24,2.62q.16,6.13.31,12.28.15,8.35.31,16.73a128.29,128.29,0,0,0,45.77,1.46c15.82-2.4,20.8-6.29,32.59-5.49,18.66,1.27,42.07,13.45,42.84,26.36,1.53,25.55-80.39,36.24-79.82,59.69.65,26.62,107,44,107.65,41.74.52-1.91-77.32-15-78.36-39.55-1.18-27.83,97.53-48,94.1-70.3-1.91-12.43-34.32-16.55-33.68-19.77s34.63.45,74,5.86C231.62,140.59,231.08,128.36,230.86,124.48Z" transform="translate(-26.26 -20.98)"/><path class="cls-1" d="M260.06,75.36V74.12a6.28,6.28,0,0,0-.36-2.55,1.27,1.27,0,0,0-1.23-.71c-.84,0-1.39.52-1.64,1.55a35.16,35.16,0,0,0-.31,6,35.08,35.08,0,0,0,.31,6.05c.25,1,.8,1.55,1.64,1.55s1.44-.74,1.65-2.23a31.43,31.43,0,0,0,.09-3.2h5.59v1.65q0,7.69-7.33,7.69-4.71,0-6.39-2.67-1.52-2.39-1.52-8.84c0-4.26.58-7.24,1.72-8.95S255.5,67,258.47,67q7.17,0,7.17,7v1.4Z" transform="translate(-26.26 -20.98)"/><path class="cls-1" d="M267.22,78.46q0-6.27,1.77-8.89c1.18-1.74,3.23-2.62,6.14-2.62s5,.88,6.15,2.62,1.77,4.71,1.77,8.89-.59,7.14-1.77,8.89S278.05,90,275.13,90s-5-.87-6.14-2.62S267.22,82.64,267.22,78.46Zm6,0a35.08,35.08,0,0,0,.31,6.05c.25,1,.8,1.55,1.64,1.55s1.4-.51,1.65-1.55a35.08,35.08,0,0,0,.31-6.05,35.16,35.16,0,0,0-.31-6c-.25-1-.8-1.55-1.65-1.55s-1.39.52-1.64,1.55A35.16,35.16,0,0,0,273.18,78.46Z" transform="translate(-26.26 -20.98)"/><path class="cls-1" d="M285.12,89.54V67.39h6.5L295.36,81V67.39h5.4V89.54h-6.37l-3.87-13.68V89.54Z" transform="translate(-26.26 -20.98)"/><path class="cls-1" d="M306.47,89.54l-4.78-22.15h6.15l2.32,16.69h.07l2.32-16.69h6.15l-4.78,22.15Z" transform="translate(-26.26 -20.98)"/><path class="cls-1" d="M319.63,89.54V67.39h13.12V72.1H325.4v3.79h6.89v4.53H325.4v4.4H333v4.72Z" transform="translate(-26.26 -20.98)"/><path class="cls-1" d="M335.14,89.54V67.39h6.49L345.38,81V67.39h5.4V89.54h-6.37l-3.87-13.68V89.54Z" transform="translate(-26.26 -20.98)"/><path class="cls-1" d="M356.42,89.54V72.29h-4.34v-4.9h14.46v4.9H362.2V89.54Z" transform="translate(-26.26 -20.98)"/><path class="cls-1" d="M367.19,78.46q0-6.27,1.77-8.89c1.18-1.74,3.23-2.62,6.14-2.62s5,.88,6.15,2.62S383,74.28,383,78.46s-.59,7.14-1.76,8.89S378,90,375.1,90s-5-.87-6.14-2.62S367.19,82.64,367.19,78.46Zm6,0a35.08,35.08,0,0,0,.31,6.05c.25,1,.79,1.55,1.64,1.55s1.4-.51,1.65-1.55a36.19,36.19,0,0,0,.31-6.05,36.28,36.28,0,0,0-.31-6c-.25-1-.8-1.55-1.65-1.55s-1.39.52-1.64,1.55A35.16,35.16,0,0,0,373.15,78.46Z" transform="translate(-26.26 -20.98)"/><path d="M265.27,111h-5.4v-.53c0-1.59-.55-2.39-1.66-2.39a1.64,1.64,0,0,0-1.35.58,2.11,2.11,0,0,0-.46,1.38c0,1.14.81,2.08,2.45,2.82a48.44,48.44,0,0,1,4.53,2.2,6.23,6.23,0,0,1,2.45,5.31q0,6.83-7.85,6.83c-2.48,0-4.33-.47-5.53-1.4s-1.92-2.63-1.92-4.84v-.78h5.59v.53q0,2.58,1.89,2.58a1.67,1.67,0,0,0,1.36-.61,2.33,2.33,0,0,0,.5-1.53c0-1.16-.79-2.09-2.36-2.8a47.72,47.72,0,0,1-4.34-2.14,6,6,0,0,1-2.36-5.12q0-6.91,7.28-6.92c2.5,0,4.33.55,5.47,1.63S265.27,108.63,265.27,111Z" transform="translate(-26.26 -20.98)"/><path d="M266.11,126.77l5.39-22.15h7.26l5.4,22.15H278l-.59-3.88h-4.59l-.59,3.88Zm10.64-8.22-1.58-9.4h-.07l-1.58,9.4Z" transform="translate(-26.26 -20.98)"/><path d="M285.12,126.77V104.62h6.5l3.74,13.65V104.62h5.4v22.15h-6.37l-3.87-13.68v13.68Z" transform="translate(-26.26 -20.98)"/><path d="M306.41,126.77V109.52h-4.34v-4.9h14.45v4.9h-4.34v17.25Z" transform="translate(-26.26 -20.98)"/><path d="M316.06,126.77l5.4-22.15h7.26l5.4,22.15H328l-.59-3.88h-4.59l-.59,3.88Zm10.64-8.22-1.58-9.4h-.06l-1.59,9.4Z" transform="translate(-26.26 -20.98)"/><path class="cls-1" d="M251,164V141.85h8.25L261.58,155h.06L264,141.85h8.25V164h-5.4V147.5L263.71,164H259.5l-3.1-16.5V164Z" transform="translate(-26.26 -20.98)"/><path class="cls-1" d="M273,164l5.4-22.15h7.26L291,164h-6.14l-.59-3.88H279.7l-.59,3.88Zm10.65-8.22-1.59-9.4H282l-1.58,9.4Z" transform="translate(-26.26 -20.98)"/><path class="cls-1" d="M292,164V141.85h9c4.06,0,6.08,2,6.08,5.9q0,4.68-3.78,5.27v.06a3.58,3.58,0,0,1,2.82,1.41,6.47,6.47,0,0,1,.81,3.56v1.89a8.68,8.68,0,0,0,.28,3.07,3.42,3.42,0,0,0,.65.68V164h-6.15a11,11,0,0,1-.55-4.22v-1.49a5.12,5.12,0,0,0-.42-2.51,1.63,1.63,0,0,0-1.48-.65h-1.52V164Zm5.77-18v5.21h1.15c1.61,0,2.42-.88,2.42-2.64s-.82-2.57-2.45-2.57Z" transform="translate(-26.26 -20.98)"/><path class="cls-1" d="M309.57,164V141.85h5.78V164Z" transform="translate(-26.26 -20.98)"/><path class="cls-1" d="M316.09,164l5.4-22.15h7.26l5.4,22.15H328l-.58-3.88h-4.6l-.59,3.88Zm10.64-8.22-1.58-9.4h-.06l-1.58,9.4Z" transform="translate(-26.26 -20.98)"/><path d="M251.21,201.24V179.08h8.38q4.5,0,6,3.35,1,2.23,1,7.73t-1,7.72q-1.51,3.36-6,3.36Zm5.77-18v13.84h1.13a2.12,2.12,0,0,0,2.05-1.27,7.23,7.23,0,0,0,.49-2.83v-5.64a7.16,7.16,0,0,0-.49-2.83,2.1,2.1,0,0,0-2.05-1.27Z" transform="translate(-26.26 -20.98)"/><path d="M269,201.24V179.08h13.13v4.72h-7.36v3.78h6.89v4.53h-6.89v4.41h7.64v4.72Z" transform="translate(-26.26 -20.98)"/><path d="M284.54,201.24V179.08h5.77v17.44h7.1v4.72Z" transform="translate(-26.26 -20.98)"/><path d="M260.06,224.29v-1.24a6.28,6.28,0,0,0-.36-2.55,1.27,1.27,0,0,0-1.23-.71c-.84,0-1.39.52-1.64,1.55a35.16,35.16,0,0,0-.31,6,35.16,35.16,0,0,0,.31,6.05c.25,1,.8,1.55,1.64,1.55s1.44-.74,1.65-2.23a31.43,31.43,0,0,0,.09-3.2h5.59v1.65q0,7.69-7.33,7.69-4.71,0-6.39-2.67-1.52-2.39-1.52-8.84c0-4.26.58-7.24,1.72-8.95s3.22-2.56,6.19-2.56q7.17,0,7.17,7v1.4Z" transform="translate(-26.26 -20.98)"/><path d="M267.87,238.47V216.31H281V221h-7.35v3.79h6.88v4.53h-6.88v4.4h7.63v4.72Z" transform="translate(-26.26 -20.98)"/><path d="M283.39,238.47V216.31h6.49L293.63,230V216.31H299v22.16h-6.37l-3.87-13.69v13.69Z" transform="translate(-26.26 -20.98)"/><path d="M309.2,230.34v-3.91h7.45v12h-3.91l-.12-2h-.07c-.66,1.6-2.25,2.39-4.77,2.39q-4.06,0-5.4-3-1-2.26-1-8.5c0-4,.53-6.86,1.59-8.53q1.83-3,6.67-3,7,0,7,7.45h-5.59c0-2.36-.54-3.54-1.64-3.54a1.72,1.72,0,0,0-1.74,1.55,31.84,31.84,0,0,0-.34,6,35.16,35.16,0,0,0,.31,6.05c.25,1,.8,1.55,1.65,1.55a1.47,1.47,0,0,0,1.42-.87,10.13,10.13,0,0,0,.53-3.78Z" transform="translate(-26.26 -20.98)"/><path d="M318.79,238.47V216.31h5.77v22.16Z" transform="translate(-26.26 -20.98)"/><path d="M326.42,227.39q0-6.27,1.77-8.89t6.14-2.62q4.38,0,6.15,2.62t1.77,8.89q0,6.27-1.77,8.89t-6.15,2.62q-4.36,0-6.14-2.62T326.42,227.39Zm6,0a35.16,35.16,0,0,0,.31,6.05c.25,1,.8,1.55,1.64,1.55s1.4-.51,1.65-1.55a36.28,36.28,0,0,0,.31-6.05,36.28,36.28,0,0,0-.31-6c-.25-1-.8-1.55-1.65-1.55s-1.39.52-1.64,1.55A35.16,35.16,0,0,0,332.38,227.39Z" transform="translate(-26.26 -20.98)"/><line class="cls-2" x1="218.32" y1="43.81" x2="218.32" y2="220.84"/></svg>