<?xml version="1.0" encoding="utf-8"?>
<!-- Generator: Adobe Illustrator 22.1.0, SVG Export Plug-In . SVG Version: 6.00 Build 0)  -->
<svg version="1.1" xmlns="http://www.w3.org/2000/svg" xmlns:xlink="http://www.w3.org/1999/xlink" x="0px" y="0px"
	 viewBox="0 0 356.8 255.8" style="enable-background:new 0 0 356.8 255.8;" xml:space="preserve">
<style type="text/css">
	.st0{display:none;}
	.st1{display:inline;fill:#606060;}
	.st2{fill:#FFFFFF;}
	.st3{fill:#FFFFFF;stroke:#FFFFFF;stroke-width:3.11;stroke-miterlimit:10;}
	.st4{fill:#94080B;}
	.st5{fill:none;stroke:#94080B;stroke-width:3.11;stroke-miterlimit:10;}
</style>
<g id="Livello_2" class="st0">
	<rect x="-76.3" y="-20.7" class="st1" width="493.3" height="311"/>
</g>
<g id="Livello_1">
	<path class="st2" d="M232.3,56.9v-1.2c0.1-0.9-0.1-1.7-0.4-2.6c-0.2-0.5-0.7-0.7-1.2-0.7c-0.8,0-1.4,0.5-1.6,1.6
		c-0.3,2-0.4,4-0.3,6c-0.1,2,0,4,0.3,6.1c0.3,1,0.8,1.6,1.6,1.6s1.4-0.7,1.6-2.2c0.1-1.1,0.1-2.1,0.1-3.2h5.6V64
		c0,5.1-2.4,7.7-7.3,7.7c-3.1,0-5.3-0.9-6.4-2.7c-1-1.6-1.5-4.5-1.5-8.8c0-4.3,0.6-7.2,1.7-8.9s3.2-2.5,6.2-2.5c4.8,0,7.2,2.3,7.2,7
		v1.4L232.3,56.9z"/>
	<path class="st2" d="M239.5,60c0-4.2,0.6-7.1,1.8-8.9c1.2-1.7,3.2-2.6,6.1-2.6s5,0.9,6.1,2.6c1.1,1.7,1.8,4.7,1.8,8.9
		c0,4.2-0.6,7.1-1.8,8.9s-3.2,2.7-6.1,2.7s-5-0.9-6.1-2.6S239.5,64.2,239.5,60z M245.5,60c-0.1,2,0,4,0.3,6.1c0.3,1,0.8,1.5,1.6,1.5
		s1.4-0.5,1.6-1.5c0.3-2,0.4-4,0.3-6.1c0.1-2,0-4-0.3-6c-0.3-1-0.8-1.6-1.6-1.6s-1.4,0.5-1.6,1.6C245.5,56,245.4,58,245.5,60
		L245.5,60z"/>
	<path class="st2" d="M257.4,71.1V48.9h6.5l3.7,13.6V48.9h5.4V71h-6.4l-3.9-13.7V71L257.4,71.1L257.4,71.1z"/>
	<path class="st2" d="M278.7,71.1L273.9,49h6.1l2.3,16.7h0.1l2.3-16.7h6.1L286,71.1H278.7z"/>
	<path class="st2" d="M291.9,71.1V48.9H305v4.7h-7.4v3.8h6.9v4.5h-6.9v4.4h7.6V71L291.9,71.1L291.9,71.1z"/>
	<path class="st2" d="M307.4,71.1V48.9h6.5l3.8,13.6V48.9h5.4V71h-6.4l-3.9-13.7V71L307.4,71.1L307.4,71.1z"/>
	<path class="st2" d="M328.7,71.1V53.8h-4.3v-4.9h14.5v4.9h-4.3V71L328.7,71.1L328.7,71.1z"/>
	<path class="st2" d="M339.4,60c0-4.2,0.6-7.1,1.8-8.9c1.2-1.7,3.2-2.6,6.1-2.6s5,0.9,6.1,2.6s1.8,4.7,1.8,8.9
		c0,4.2-0.6,7.1-1.8,8.9s-3.2,2.7-6.1,2.7s-5-0.9-6.1-2.6S339.4,64.2,339.4,60z M345.4,60c-0.1,2,0,4,0.3,6.1c0.3,1,0.8,1.5,1.6,1.5
		s1.4-0.5,1.6-1.5c0.3-2,0.4-4,0.3-6.1c0.1-2,0-4-0.3-6c-0.3-1-0.8-1.6-1.6-1.6s-1.4,0.5-1.6,1.6C345.5,56,345.3,58,345.4,60
		L345.4,60z"/>
	<path class="st2" d="M237.5,92.5h-5.4V92c0-1.6-0.5-2.4-1.7-2.4c-0.5,0-1,0.2-1.4,0.6c-0.3,0.4-0.5,0.9-0.5,1.4
		c0,1.1,0.8,2.1,2.5,2.8c1.5,0.7,3.1,1.4,4.5,2.2c1.6,1.3,2.6,3.2,2.5,5.3c0,4.6-2.6,6.8-7.9,6.8c-2.5,0-4.3-0.5-5.5-1.4
		s-1.9-2.6-1.9-4.8v-0.8h5.6v0.5c0,1.7,0.6,2.6,1.9,2.6c0.5,0,1-0.2,1.4-0.6c0.3-0.4,0.5-1,0.5-1.5c0-1.2-0.8-2.1-2.4-2.8
		c-1.5-0.6-2.9-1.4-4.3-2.1c-1.6-1.2-2.5-3.1-2.4-5.1c0-4.6,2.4-6.9,7.3-6.9c2.5,0,4.3,0.6,5.5,1.6
		C236.9,88.4,237.5,90.1,237.5,92.5z"/>
	<path class="st2" d="M238.3,108.3l5.4-22.1h7.3l5.4,22.1h-6.2l-0.6-3.9H245l-0.6,3.9H238.3z M249,100.1l-1.6-9.4h-0.1l-1.6,9.4H249
		z"/>
	<path class="st2" d="M257.4,108.3V86.1h6.5l3.7,13.7V86.1h5.4v22.2h-6.4l-3.9-13.7v13.7H257.4z"/>
	<path class="st2" d="M278.6,108.3V91h-4.3v-4.9h14.5V91h-4.3v17.3H278.6z"/>
	<path class="st2" d="M288.3,108.3l5.4-22.1h7.3l5.4,22.1h-6.1l-0.6-3.9h-4.6l-0.6,3.9H288.3z M298.9,100.1l-1.6-9.4h-0.1l-1.6,9.4
		H298.9z"/>
	<path class="st2" d="M223.2,145.5v-22.1h8.3l2.3,13.1h0.1l2.4-13.1h8.3v22.1h-5.4V129l-3.1,16.5h-4.2l-3.1-16.5v16.5H223.2z"/>
	<path class="st2" d="M245.2,145.5l5.4-22.1h7.3l5.3,22.1h-6.1l-0.6-3.9h-4.6l-0.6,3.9H245.2z M255.9,137.3l-1.6-9.4h-0.1l-1.6,9.4
		H255.9z"/>
	<path class="st2" d="M264.2,145.5v-22.1h9c4.1,0,6.1,2,6.1,5.9c0,3.1-1.3,4.9-3.8,5.3v0.1c1.1,0,2.1,0.5,2.8,1.4
		c0.6,1.1,0.9,2.3,0.8,3.6v1.9c-0.1,1,0,2.1,0.3,3.1c0.2,0.3,0.4,0.5,0.6,0.7v0.3h-6.1c-0.5-1.4-0.6-2.8-0.5-4.2V140
		c0.1-0.9-0.1-1.7-0.4-2.5c-0.3-0.5-0.9-0.7-1.5-0.6H270v8.9h-5.8V145.5z M270,127.5v5.2h1.1c1.6,0,2.4-0.9,2.4-2.6
		c0-1.7-0.8-2.6-2.5-2.6H270z"/>
	<path class="st2" d="M281.8,145.5v-22.1h5.8v22.1H281.8z"/>
	<path class="st2" d="M288.3,145.5l5.4-22.1h7.3l5.4,22.1h-6.1l-0.6-3.9h-4.6l-0.6,3.9H288.3z M299,137.3l-1.6-9.4h-0.1l-1.6,9.4
		H299z"/>
	<path class="st2" d="M223.5,182.8v-22.2h8.4c3,0,5,1.1,6,3.4c0.7,1.5,1,4.1,1,7.7c0,3.7-0.3,6.2-1,7.7c-1,2.2-3,3.4-6,3.4
		L223.5,182.8L223.5,182.8z M229.2,164.8v13.8h1.1c0.9,0,1.7-0.5,2-1.3c0.4-0.9,0.5-1.9,0.5-2.8v-5.6c0-1-0.1-1.9-0.5-2.8
		c-0.3-0.8-1.2-1.3-2-1.3L229.2,164.8z"/>
	<path class="st2" d="M241.2,182.8v-22.2h13.1v4.7h-7.4v3.8h6.9v4.5h-6.9v4.4h7.6v4.7h-13.3V182.8z"/>
	<path class="st2" d="M256.8,182.8v-22.2h5.8V178h7.1v4.7h-12.9V182.8z"/>
	<path class="st2" d="M232.3,205.8v-1.2c0.1-0.9-0.1-1.7-0.4-2.6c-0.2-0.5-0.7-0.7-1.2-0.7c-0.8,0-1.4,0.5-1.6,1.6
		c-0.3,2-0.4,4-0.3,6c-0.1,2,0,4,0.3,6.1c0.3,1,0.8,1.6,1.6,1.6s1.4-0.7,1.6-2.2c0.1-1.1,0.1-2.1,0.1-3.2h5.6v1.6
		c0,5.1-2.4,7.7-7.3,7.7c-3.1,0-5.3-0.9-6.4-2.7c-1-1.6-1.5-4.5-1.5-8.8s0.6-7.2,1.7-8.9s3.2-2.6,6.2-2.6c4.8,0,7.2,2.3,7.2,7v1.4
		L232.3,205.8z"/>
	<path class="st2" d="M240.1,220v-22.2h13.1v4.7h-7.4v3.8h6.9v4.5h-6.9v4.4h7.6v4.7L240.1,220z"/>
	<path class="st2" d="M255.6,220v-22.2h6.5l3.8,13.7v-13.7h5.4V220h-6.4l-3.9-13.7V220H255.6z"/>
	<path class="st2" d="M281.4,211.9V208h7.5v12H285l-0.1-2h-0.1c-0.7,1.6-2.3,2.4-4.8,2.4c-2.7,0-4.5-1-5.4-3c-0.7-1.5-1-4.3-1-8.5
		c0-4,0.5-6.9,1.6-8.5c1.2-2,3.4-3,6.7-3c4.7,0,7,2.5,7,7.4h-5.6c0-2.4-0.5-3.5-1.6-3.5c-0.9,0-1.7,0.7-1.7,1.6c-0.3,2-0.4,4-0.3,6
		c-0.1,2,0,4,0.3,6.1c0.3,1,0.8,1.6,1.6,1.6c0.6,0,1.2-0.3,1.4-0.9c0.4-1.2,0.6-2.5,0.5-3.8L281.4,211.9z"/>
	<path class="st2" d="M291,220v-22.2h5.8V220H291z"/>
	<path class="st2" d="M298.7,208.9c0-4.2,0.6-7.1,1.8-8.9s3.2-2.6,6.1-2.6s5,0.9,6.1,2.6s1.8,4.7,1.8,8.9s-0.6,7.1-1.8,8.9
		c-1.2,1.7-3.2,2.6-6.1,2.6s-5-0.9-6.1-2.6C299.2,216.1,298.7,213.1,298.7,208.9z M304.7,208.9c-0.1,2,0,4,0.3,6.1
		c0.3,1,0.8,1.6,1.6,1.6s1.4-0.5,1.6-1.6c0.3-2,0.4-4,0.3-6.1c0.1-2,0-4-0.3-6c-0.3-1-0.8-1.6-1.6-1.6s-1.4,0.5-1.6,1.6
		C304.7,204.9,304.6,206.9,304.7,208.9L304.7,208.9z"/>
	<line class="st3" x1="216.8" y1="46.3" x2="216.8" y2="223.3"/>
	<path class="st2" d="M207.9,108.1c-0.2-3-0.5-8.5-0.5-8.5c-0.1-1.7-0.1-2.5-0.2-4.1l-0.4-6.3c-0.1-1,0.3-4.2-0.6-4.8
		c-0.4-0.2-0.7-0.3-1.1-0.3c-0.1,0.3-0.2,0.5-0.2,0.8s-0.1,0.6-0.3,0.8c-1.3,1.4-1.4-1.7-1.4-2.1c0-0.1,0-0.1-0.1-0.2
		c0-0.1-0.1-0.1-0.2-0.1c-0.4-0.2-0.9-0.2-1.3,0c-0.4,0.2-0.7,2.1-0.7,2.1c-2.1,0-0.1-1.9-0.9-2.9c-0.4-0.5-1.4-0.6-2-0.7
		c0,0.8,0,1.6,0,2.4c-0.2,0-1.4-0.4-1.4-0.6c-0.2-4.9-0.6-9.9-0.6-14.8c-0.2-5.6-0.4-11.3-0.6-16.9c-0.1-2.8-0.2-5.6-0.3-8.5
		c-0.1-2-0.8-5,0.2-6.9c0.4-0.7,0.9-1.3,1.5-1.9c-1.9-0.8-3.9-1.6-5.9-2.3c-0.3-0.1-0.5-0.2-0.7-0.4c-0.1-0.2-0.2-0.4-0.3-0.6
		c-2.3-8.9-4.7-17.8-7.1-26.7c-1.3,9.4-2.7,18.8-4,28.1c0,0.2-0.1,0.5-0.2,0.7c-0.1,0.2-0.3,0.3-0.5,0.4c-0.5,0.3-2.1,1-4.4,2
		c0.9,0.3,1.5,1,1.9,1.8c0.1,0.3,0.2,0.6,0.2,0.9c0.1,3,0.1,6,0.2,9c0.2,6.9,0.5,13.9,0.7,20.8l-6.8-2.8l-27-11
		c-9-3.7-18.1-7.4-27.1-11.1c-0.5-0.2-1-0.4-1.5-0.4c-0.4,0-0.8,0.1-1.1,0.3l-1.7,0.7c-0.4,0.2-0.8,0.3-1.1,0.3
		c-0.3,0-0.6-0.1-0.9-0.3c-4.8-2.3-9.6-4.6-14.5-6.7c-0.4-0.2-0.9-0.4-1.3-0.5c-2.1-0.6-4.5-0.2-6.7-0.4c-2.2-0.2-4.5-0.1-6.7-0.2
		c-0.3-0.1-0.7,0.1-0.8,0.4c-1.7,2.4-3.4,4.7-5.2,7c-0.9,1.2-1.8,2.4-2.7,3.6c-0.7,0.8-1.3,1.6-1.7,2.6c-0.1,0.6-0.1,1.2-0.1,1.8
		c0,0.9,0,1.8,0,2.7c0,0.2,0,0.3-0.1,0.5c-0.1,0.1-0.2,0.3-0.4,0.3l-4.5,3L45.3,71.5l-24,16.2l-9.8,6.6c-1.6,1.1-3.2,2.1-4.8,3.2
		c-1.2,0.8-2.6,1.1-3.1,2.5c-0.3,0.9-0.4,1.8-0.3,2.7c0.1,4.1,0.2,8.2,0.3,12.3c0.1,5.6,0.2,11.1,0.3,16.7c15,3.2,30.5,3.7,45.8,1.5
		c15.8-2.4,20.8-6.3,32.6-5.5c18.7,1.3,42.1,13.4,42.8,26.4c1.5,25.6-80.4,36.2-79.8,59.7c0.7,26.6,107,44,107.7,41.7
		c0.5-1.9-77.3-15-78.4-39.6c-1.2-27.8,97.5-48,94.1-70.3c-1.9-12.4-34.3-16.6-33.7-19.8s34.6,0.4,74,5.9
		C208.7,124.2,208.1,112,207.9,108.1z"/>
	<title>logo</title>
	<path class="st4" d="M204.6,103.5c-0.2-3-0.5-8.5-0.5-8.5c-0.1-1.7-0.1-2.5-0.2-4.1l-0.4-6.3c-0.1-1,0.3-4.2-0.6-4.8
		c-0.4-0.2-0.7-0.3-1.1-0.3c-0.1,0.3-0.2,0.5-0.2,0.8s-0.1,0.6-0.3,0.8c-1.3,1.4-1.4-1.7-1.4-2.1c0-0.1,0-0.1-0.1-0.2
		c0-0.1-0.1-0.1-0.2-0.1c-0.4-0.2-0.9-0.2-1.3,0c-0.4,0.2-0.7,2.1-0.7,2.1c-2.1,0-0.1-1.9-0.9-2.9c-0.4-0.5-1.4-0.6-2-0.7
		c0,0.8,0,1.6,0,2.4c-0.2,0-1.4-0.4-1.4-0.6c-0.2-4.9-0.6-9.9-0.6-14.8c-0.2-5.6-0.4-11.3-0.6-16.9c-0.1-2.8-0.2-5.6-0.3-8.5
		c-0.1-2-0.8-5,0.2-6.9c0.4-0.7,0.9-1.3,1.5-1.9c-1.9-0.8-3.9-1.6-5.9-2.3c-0.3-0.1-0.5-0.2-0.7-0.4c-0.1-0.2-0.2-0.4-0.3-0.6
		c-2.3-8.9-4.7-17.8-7.1-26.7c-1.3,9.4-2.7,18.8-4,28.1c0,0.2-0.1,0.5-0.2,0.7c-0.1,0.2-0.3,0.3-0.5,0.4c-0.5,0.3-2.1,1-4.4,2
		c0.9,0.3,1.5,1,1.9,1.8c0.1,0.3,0.2,0.6,0.2,0.9c0.1,3,0.1,6,0.2,9c0.2,6.9,0.5,13.9,0.7,20.8l-6.8-2.8l-27-11
		c-9-3.7-18.1-7.4-27.1-11.1c-0.5-0.2-1-0.4-1.5-0.4c-0.4,0-0.8,0.1-1.1,0.3l-1.7,0.7c-0.4,0.2-0.8,0.3-1.1,0.3
		c-0.3,0-0.6-0.1-0.9-0.3c-4.8-2.3-9.6-4.6-14.5-6.7c-0.4-0.2-0.9-0.4-1.3-0.5c-2.1-0.6-4.5-0.2-6.7-0.4s-4.5-0.1-6.7-0.2
		c-0.3-0.1-0.7,0.1-0.8,0.4c-1.7,2.4-3.4,4.7-5.2,7c-0.9,1.2-1.8,2.4-2.7,3.6c-0.7,0.8-1.3,1.6-1.7,2.6c-0.1,0.6-0.1,1.2-0.1,1.8
		c0,0.9,0,1.8,0,2.7c0,0.2,0,0.3-0.1,0.5c-0.1,0.1-0.2,0.3-0.4,0.3l-4.5,3L42,66.9L18,83.1l-9.8,6.6c-1.6,1.1-3.2,2.1-4.8,3.2
		c-1.2,0.8-2.6,1.1-3.1,2.5C0,96.3-0.1,97.2,0,98.1c0.1,4.1,0.2,8.2,0.3,12.3c0.1,5.6,0.2,11.1,0.3,16.7c15,3.2,30.5,3.7,45.8,1.5
		c15.8-2.4,20.8-6.3,32.6-5.5c18.7,1.3,42.1,13.4,42.8,26.4c1.5,25.6-80.4,36.2-79.8,59.7c0.7,26.6,107,44,107.7,41.7
		c0.5-1.9-77.3-15-78.4-39.6c-1.2-27.8,97.5-48,94.1-70.3c-1.9-12.4-34.3-16.6-33.7-19.8s34.6,0.4,74,5.9
		C205.4,119.6,204.8,107.4,204.6,103.5z"/>
	<path class="st4" d="M233.8,54.4v-1.2c0.1-0.9-0.1-1.7-0.4-2.6c-0.2-0.5-0.7-0.7-1.2-0.7c-0.8,0-1.4,0.5-1.6,1.6
		c-0.3,2-0.4,4-0.3,6c-0.1,2,0,4,0.3,6.1c0.3,1,0.8,1.6,1.6,1.6s1.4-0.7,1.6-2.2c0.1-1.1,0.1-2.1,0.1-3.2h5.6v1.7
		c0,5.1-2.4,7.7-7.3,7.7c-3.1,0-5.3-0.9-6.4-2.7c-1-1.6-1.5-4.5-1.5-8.8s0.6-7.2,1.7-8.9s3.2-2.5,6.2-2.5c4.8,0,7.2,2.3,7.2,7v1.4
		L233.8,54.4z"/>
	<path class="st4" d="M241,57.5c0-4.2,0.6-7.1,1.8-8.9c1.2-1.7,3.2-2.6,6.1-2.6s5,0.9,6.1,2.6c1.1,1.7,1.8,4.7,1.8,8.9
		s-0.6,7.1-1.8,8.9s-3.2,2.7-6.1,2.7s-5-0.9-6.1-2.6S241,61.7,241,57.5z M247,57.5c-0.1,2,0,4,0.3,6.1c0.3,1,0.8,1.5,1.6,1.5
		s1.4-0.5,1.6-1.5c0.3-2,0.4-4,0.3-6.1c0.1-2,0-4-0.3-6c-0.3-1-0.8-1.6-1.6-1.6s-1.4,0.5-1.6,1.6C247,53.5,246.9,55.5,247,57.5
		L247,57.5z"/>
	<path class="st4" d="M258.9,68.6V46.4h6.5l3.7,13.6V46.4h5.4v22.1h-6.4l-3.9-13.7v13.7L258.9,68.6L258.9,68.6z"/>
	<path class="st4" d="M280.2,68.6l-4.8-22.1h6.1l2.3,16.7h0.1l2.3-16.7h6.1l-4.8,22.1H280.2z"/>
	<path class="st4" d="M293.4,68.6V46.4h13.1v4.7h-7.4v3.8h6.9v4.5h-6.9v4.4h7.6v4.7L293.4,68.6L293.4,68.6z"/>
	<path class="st4" d="M308.9,68.6V46.4h6.5l3.8,13.6V46.4h5.4v22.1h-6.4l-3.9-13.7v13.7L308.9,68.6L308.9,68.6z"/>
	<path class="st4" d="M330.2,68.6V51.3h-4.3v-4.9h14.5v4.9h-4.3v17.2L330.2,68.6L330.2,68.6z"/>
	<path class="st4" d="M340.9,57.5c0-4.2,0.6-7.1,1.8-8.9c1.2-1.7,3.2-2.6,6.1-2.6s5,0.9,6.1,2.6s1.8,4.7,1.8,8.9s-0.6,7.1-1.8,8.9
		s-3.2,2.7-6.1,2.7s-5-0.9-6.1-2.6S340.9,61.7,340.9,57.5z M346.9,57.5c-0.1,2,0,4,0.3,6.1c0.3,1,0.8,1.5,1.6,1.5s1.4-0.5,1.6-1.5
		c0.3-2,0.4-4,0.3-6.1c0.1-2,0-4-0.3-6c-0.3-1-0.8-1.6-1.6-1.6s-1.4,0.5-1.6,1.6C347,53.5,346.8,55.5,346.9,57.5L346.9,57.5z"/>
	<path d="M239,90h-5.4v-0.5c0-1.6-0.5-2.4-1.7-2.4c-0.5,0-1,0.2-1.4,0.6c-0.3,0.4-0.5,0.9-0.5,1.4c0,1.1,0.8,2.1,2.5,2.8
		c1.5,0.7,3.1,1.4,4.5,2.2c1.6,1.3,2.6,3.2,2.5,5.3c0,4.6-2.6,6.8-7.9,6.8c-2.5,0-4.3-0.5-5.5-1.4s-1.9-2.6-1.9-4.8v-0.8h5.6v0.5
		c0,1.7,0.6,2.6,1.9,2.6c0.5,0,1-0.2,1.4-0.6c0.3-0.4,0.5-1,0.5-1.5c0-1.2-0.8-2.1-2.4-2.8c-1.5-0.6-2.9-1.4-4.3-2.1
		c-1.6-1.2-2.5-3.1-2.4-5.1c0-4.6,2.4-6.9,7.3-6.9c2.5,0,4.3,0.6,5.5,1.6C238.4,85.9,239,87.6,239,90z"/>
	<path d="M239.8,105.8l5.4-22.1h7.3l5.4,22.1h-6.2l-0.6-3.9h-4.6l-0.6,3.9H239.8z M250.5,97.6l-1.6-9.4h-0.1l-1.6,9.4H250.5z"/>
	<path d="M258.9,105.8V83.6h6.5l3.7,13.7V83.6h5.4v22.2h-6.4l-3.9-13.7v13.7H258.9z"/>
	<path d="M280.1,105.8V88.5h-4.3v-4.9h14.5v4.9H286v17.3H280.1z"/>
	<path d="M289.8,105.8l5.4-22.1h7.3l5.4,22.1h-6.1l-0.6-3.9h-4.6l-0.6,3.9H289.8z M300.4,97.6l-1.6-9.4h-0.1l-1.6,9.4H300.4z"/>
	<path class="st4" d="M224.7,143v-22.1h8.3l2.3,13.1h0.1l2.4-13.1h8.3V143h-5.4v-16.5l-3.1,16.5h-4.2l-3.1-16.5V143H224.7z"/>
	<path class="st4" d="M246.7,143l5.4-22.1h7.3l5.3,22.1h-6.1l-0.6-3.9h-4.6l-0.6,3.9H246.7z M257.4,134.8l-1.6-9.4h-0.1l-1.6,9.4
		H257.4z"/>
	<path class="st4" d="M265.7,143v-22.1h9c4.1,0,6.1,2,6.1,5.9c0,3.1-1.3,4.9-3.8,5.3v0.1c1.1,0,2.1,0.5,2.8,1.4
		c0.6,1.1,0.9,2.3,0.8,3.6v1.9c-0.1,1,0,2.1,0.3,3.1c0.2,0.3,0.4,0.5,0.6,0.7v0.3h-6.1c-0.5-1.4-0.6-2.8-0.5-4.2v-1.5
		c0.1-0.9-0.1-1.7-0.4-2.5c-0.3-0.5-0.9-0.7-1.5-0.6h-1.5v8.9h-5.8V143z M271.5,125v5.2h1.1c1.6,0,2.4-0.9,2.4-2.6s-0.8-2.6-2.5-2.6
		H271.5z"/>
	<path class="st4" d="M283.3,143v-22.1h5.8V143H283.3z"/>
	<path class="st4" d="M289.8,143l5.4-22.1h7.3l5.4,22.1h-6.1l-0.6-3.9h-4.6L296,143H289.8z M300.5,134.8l-1.6-9.4h-0.1l-1.6,9.4
		H300.5z"/>
	<path d="M225,180.3v-22.2h8.4c3,0,5,1.1,6,3.4c0.7,1.5,1,4.1,1,7.7c0,3.7-0.3,6.2-1,7.7c-1,2.2-3,3.4-6,3.4L225,180.3L225,180.3z
		 M230.7,162.3v13.8h1.1c0.9,0,1.7-0.5,2-1.3c0.4-0.9,0.5-1.9,0.5-2.8v-5.6c0-1-0.1-1.9-0.5-2.8c-0.3-0.8-1.2-1.3-2-1.3L230.7,162.3
		z"/>
	<path d="M242.7,180.3v-22.2h13.1v4.7h-7.4v3.8h6.9v4.5h-6.9v4.4h7.6v4.7h-13.3V180.3z"/>
	<path d="M258.3,180.3v-22.2h5.8v17.4h7.1v4.7h-12.9V180.3z"/>
	<path d="M233.8,203.3v-1.2c0.1-0.9-0.1-1.7-0.4-2.6c-0.2-0.5-0.7-0.7-1.2-0.7c-0.8,0-1.4,0.5-1.6,1.6c-0.3,2-0.4,4-0.3,6
		c-0.1,2,0,4,0.3,6.1c0.3,1,0.8,1.6,1.6,1.6s1.4-0.7,1.6-2.2c0.1-1.1,0.1-2.1,0.1-3.2h5.6v1.6c0,5.1-2.4,7.7-7.3,7.7
		c-3.1,0-5.3-0.9-6.4-2.7c-1-1.6-1.5-4.5-1.5-8.8s0.6-7.2,1.7-8.9s3.2-2.6,6.2-2.6c4.8,0,7.2,2.3,7.2,7v1.4L233.8,203.3z"/>
	<path d="M241.6,217.5v-22.2h13.1v4.7h-7.4v3.8h6.9v4.5h-6.9v4.4h7.6v4.7L241.6,217.5z"/>
	<path d="M257.1,217.5v-22.2h6.5l3.8,13.7v-13.7h5.4v22.2h-6.4l-3.9-13.7v13.7H257.1z"/>
	<path d="M282.9,209.4v-3.9h7.5v12h-3.9l-0.1-2h-0.1c-0.7,1.6-2.3,2.4-4.8,2.4c-2.7,0-4.5-1-5.4-3c-0.7-1.5-1-4.3-1-8.5
		c0-4,0.5-6.9,1.6-8.5c1.2-2,3.4-3,6.7-3c4.7,0,7,2.5,7,7.4h-5.6c0-2.4-0.5-3.5-1.6-3.5c-0.9,0-1.7,0.7-1.7,1.6c-0.3,2-0.4,4-0.3,6
		c-0.1,2,0,4,0.3,6.1c0.3,1,0.8,1.6,1.6,1.6c0.6,0,1.2-0.3,1.4-0.9c0.4-1.2,0.6-2.5,0.5-3.8L282.9,209.4z"/>
	<path d="M292.5,217.5v-22.2h5.8v22.2H292.5z"/>
	<path d="M300.2,206.4c0-4.2,0.6-7.1,1.8-8.9s3.2-2.6,6.1-2.6s5,0.9,6.1,2.6s1.8,4.7,1.8,8.9s-0.6,7.1-1.8,8.9
		c-1.2,1.7-3.2,2.6-6.1,2.6s-5-0.9-6.1-2.6C300.7,213.6,300.2,210.6,300.2,206.4z M306.2,206.4c-0.1,2,0,4,0.3,6.1
		c0.3,1,0.8,1.6,1.6,1.6s1.4-0.5,1.6-1.6c0.3-2,0.4-4,0.3-6.1c0.1-2,0-4-0.3-6c-0.3-1-0.8-1.6-1.6-1.6s-1.4,0.5-1.6,1.6
		C306.2,202.4,306.1,204.4,306.2,206.4L306.2,206.4z"/>
	<line class="st5" x1="218.3" y1="43.8" x2="218.3" y2="220.8"/>
</g>
</svg>
